<?xml version="1.0" encoding="UTF-8"?>
<svg xmlns="http://www.w3.org/2000/svg" version="1.1" viewBox="0 0 841.04 167.75">
  <!-- Generator: Adobe Illustrator 28.7.1, SVG Export Plug-In . SVG Version: 1.2.0 Build 142)  -->
  <g>
    <g id="Camada_1">
      <g>
        <g>
          <path d="M20.68,110.12h-8.5l-6.22,29.32h8.25c4.31,0,7.92,0,11.33-2.4,2.61-1.79,6.07-5.68,7.4-12.03.86-4.02.73-8.03-1.25-11.07-2.45-3.82-7.08-3.82-11-3.82M28.59,125.18c-.37,1.71-1.5,6.51-5.85,9.29-2.26,1.47-5.23,1.64-8.03,1.64h-3.98l4.83-22.64h4.88c3.57,0,5.81.49,7.22,2.58,2.12,3.03,1.14,8.03.94,9.12" style="fill: #29aae2;"/>
          <polygon points="37.24 139.44 55.98 139.44 56.74 135.87 42.08 135.87 44.15 126.12 57.8 126.12 58.53 122.71 44.89 122.71 46.78 113.57 61.14 113.57 61.87 110.12 43.46 110.12 37.24 139.44" style="fill: #29aae2;"/>
          <polygon points="78.73 139.44 82.79 139.44 89.01 110.12 84.95 110.12 78.73 139.44" style="fill: #29aae2;"/>
          <polygon points="113.91 134.37 104.61 110.13 98.96 110.13 92.75 139.45 96.45 139.45 101.72 114.55 111.36 139.45 116.55 139.45 122.77 110.13 119.03 110.13 113.91 134.37" style="fill: #29aae2;"/>
          <path d="M145.33,109.34c-2.73,0-6.91.66-10.65,3.95-3.95,3.46-5.56,8.38-6.26,11.7-1.71,8.05,0,15.13,10,15.13s15.23-7.83,16.9-15.61c2.11-9.96-1.88-15.17-9.99-15.17M151.01,124.45c-.4,1.98-1.63,6.62-4.68,9.55-2.12,2.02-4.67,2.67-7.07,2.67s-4.68-.61-5.93-2.67c-1.46-2.53-1.3-6.06-.6-9.27,1.24-6,4.46-11.99,11.9-11.99,6.69,0,7.79,5.05,6.37,11.7" style="fill: #29aae2;"/>
          <polygon points="183.75 110.12 169.66 135.18 166.65 110.12 162.14 110.12 166.38 139.46 170.84 139.46 187.86 110.12 183.75 110.12" style="fill: #29aae2;"/>
          <path d="M201.59,110.12l-18.56,29.32h4.18l4.8-7.64h13.61l1.54,7.64h4.42l-5.65-29.32h-4.34ZM193.99,128.52l8.74-14.39,2.35,14.39h-11.09Z" style="fill: #29aae2;"/>
          <path d="M234.22,134.82c-1.55,1.3-3.32,1.75-5.12,1.75-6.7,0-7.02-5.99-5.84-11.51,1.06-4.87,3.86-12.1,10.93-12.1,5.64,0,5.29,4.06,5.24,5.07h4.35c.89-6.64-4.6-8.31-8.74-8.31-10.49,0-14.83,9.25-16.13,15.4-1.38,6.57-.44,14.37,8.36,14.77l-2.76,2.92.49.69c.57-.2.93-.31,1.54-.31.65,0,2.07.16,1.75,1.57-.21,1.06-1.14,1.62-2.52,1.62-1.46,0-2.24-.32-2.6-.56l-1.13,1.5c.84.41,1.7.81,3.66.81,4.91,0,5.68-3.33,5.76-3.65.25-1.23-.24-2.9-2.61-2.9-.69,0-1.22.13-1.62.21l1.79-1.91c4.68-.28,9.99-2.63,11.74-8.16h-4.47c-.25.69-.78,1.95-2.07,3.09" style="fill: #29aae2;"/>
          <path d="M262.57,105.41c.25,0,1.15.32,1.92.52,1.1.36,1.74.54,2.47.54,1.46,0,3.7-.97,4.26-4.12h-1.66c-.2.9-.85,1.51-1.82,1.51-.49,0-.85-.13-1.42-.28-2.11-.61-2.4-.7-3.02-.7-1.01,0-1.94.42-2.72,1.15-.68.69-1.29,1.7-1.58,2.83h1.71c.65-1.17,1.27-1.45,1.87-1.45" style="fill: #29aae2;"/>
          <path d="M262.09,110.12l-18.56,29.32h4.18l4.79-7.64h13.61l1.55,7.64h4.42l-5.64-29.32h-4.34ZM254.49,128.52l8.73-14.39,2.37,14.39h-11.1Z" style="fill: #29aae2;"/>
          <path d="M296.5,109.34c-2.72,0-6.91.66-10.63,3.95-3.95,3.46-5.58,8.38-6.27,11.7-1.7,8.05,0,15.13,9.99,15.13s15.24-7.83,16.89-15.61c2.12-9.96-1.85-15.17-9.99-15.17M302.18,124.45c-.4,1.98-1.63,6.62-4.66,9.55-2.12,2.02-4.67,2.67-7.08,2.67s-4.67-.61-5.92-2.67c-1.47-2.53-1.3-6.06-.61-9.27,1.27-6,4.47-11.99,11.9-11.99,6.69,0,7.8,5.05,6.38,11.7" style="fill: #29aae2;"/>
          <polygon points="26.07 36.95 40.62 36.95 29.4 90.98 14.84 90.98 26.07 36.95" style="fill: #29aae2;"/>
          <polygon points="51.38 36.95 69.41 36.95 80.48 74.41 80.63 74.41 88.21 36.95 101.84 36.95 90.38 90.98 72.43 90.98 61.13 53.59 60.97 53.59 53.47 90.98 39.85 90.98 51.38 36.95" style="fill: #29aae2;"/>
          <path d="M144.18,49.18c-2.79-1.32-6.58-2.48-11.92-2.48-5.73,0-10.37.85-10.37,5.19,0,7.67,20.98,4.8,20.98,21.2,0,14.94-13.85,18.81-26.39,18.81-5.58,0-12-1.32-16.72-2.79l3.41-10.99c2.86,1.86,8.59,3.1,13.31,3.1,4.48,0,11.53-.85,11.53-6.42,0-8.67-20.97-5.42-20.97-20.67,0-13.93,12.22-18.11,24.07-18.11,6.66,0,12.93.7,16.56,2.4l-3.48,10.76Z" style="fill: #29aae2;"/>
          <path d="M144.18,49.18c-2.79-1.32-6.58-2.48-11.92-2.48-5.73,0-10.37.85-10.37,5.19,0,7.67,20.98,4.8,20.98,21.2,0,14.94-13.85,18.81-26.39,18.81-5.58,0-12-1.32-16.72-2.79l3.41-10.99c2.86,1.86,8.59,3.1,13.31,3.1,4.48,0,11.53-.85,11.53-6.42,0-8.67-20.97-5.42-20.97-20.67,0-13.93,12.22-18.11,24.07-18.11,6.66,0,12.93.7,16.56,2.4l-3.48,10.76Z" style="fill: #29aae2;"/>
          <polygon points="165.94 47.63 152.47 47.63 154.8 36.95 196.36 36.95 194.03 47.63 180.57 47.63 171.36 90.97 156.73 90.97 165.94 47.63" style="fill: #29aae2;"/>
          <polygon points="202.4 36.95 216.95 36.95 205.73 90.98 191.17 90.98 202.4 36.95" style="fill: #29aae2;"/>
          <polygon points="234.75 47.63 221.29 47.63 223.61 36.95 265.17 36.95 262.84 47.63 249.38 47.63 240.17 90.97 225.55 90.97 234.75 47.63" style="fill: #29aae2;"/>
          <path d="M312.16,62.1c-3.56,17.18-7.74,29.8-27.4,29.8-12.15,0-21.67-4.33-21.67-17.03,0-4.25.62-7.73,1.16-10.21l6.12-27.71h14.62l-6.5,30.57c-.54,2.55-1,4.64-1,5.88,0,4.41,2.56,7.82,7.66,7.82,9.29,0,10.76-11.15,12.62-19.82l5.34-24.46h14.32l-5.26,25.15Z" style="fill: #29aae2;"/>
          <polygon points="333.68 47.63 320.21 47.63 322.53 36.95 364.1 36.95 361.77 47.63 348.31 47.63 339.1 90.97 324.47 90.97 333.68 47.63" style="fill: #29aae2;"/>
          <path d="M385.39,91.9c-17.56,0-23.99-10.91-23.99-21.98,0-20.51,10.76-33.9,31.58-33.9,17.57,0,23.99,10.91,23.99,22.06,0,20.43-10.76,33.82-31.58,33.82M392.04,46.7c-11.15,0-15.79,12.93-15.79,22.07,0,6.81,2.56,12.46,10.06,12.46,11.14,0,15.79-12.92,15.79-21.98,0-6.81-2.55-12.54-10.06-12.54" style="fill: #29aae2;"/>
        </g>
        <g>
          <path d="M512.58,21.89c-4.63-2.19-10.94-4.12-19.83-4.12-9.53,0-17.25,1.42-17.25,8.63,0,12.74,34.89,7.98,34.89,35.27,0,24.85-23.04,31.29-43.9,31.29-9.27,0-19.95-2.18-27.81-4.64l5.66-18.29c4.76,3.1,14.29,5.15,22.15,5.15s19.18-1.42,19.18-10.69c0-14.41-34.89-9.01-34.89-34.37,0-23.17,20.35-30.13,40.04-30.13,11.07,0,21.5,1.16,27.55,3.99l-5.8,17.89Z" style="fill: #086cb5;"/>
          <polygon points="537.43 1.54 518.13 91.41 583.13 91.41 586.61 74.41 545.54 74.41 549.92 54.07 587.26 54.07 590.99 37.08 553.53 37.08 557.66 18.54 597.18 18.54 600.65 1.54 537.43 1.54" style="fill: #086cb5;"/>
          <polygon points="677 1.54 664.38 63.86 664.12 63.86 645.72 1.54 615.71 1.54 596.53 91.41 619.2 91.41 631.68 29.22 631.94 29.22 650.73 91.41 680.6 91.41 699.65 1.54 677 1.54" style="fill: #086cb5;"/>
          <path d="M743.18,1.54l-53.42,89.87h26l10.69-19.18h34.89l2.44,19.18h24.21l-14.68-89.87h-30.13ZM754.89,20.08h.26l3.86,35.15h-23.18l19.06-35.15Z" style="fill: #086cb5;"/>
          <polygon points="816.83 1.54 798.16 91.41 822.36 91.41 841.04 1.54 816.83 1.54" style="fill: #086cb5;"/>
        </g>
        <g>
          <polygon points="356.7 117.04 344.83 121.45 334.41 134.03 326.13 150.56 318.95 158.84 312.11 161.71 293.06 166.44 810.75 166.31 819.48 116.62 368.16 115.83 356.7 117.04" style="fill: #086cb5;"/>
          <path d="M820.85,109.94h-455.6c-9.04,0-20.76,6.46-25.59,14.11l-12.17,19.28c-5.58,8.84-18.61,16.02-29.06,16.02H1.67L0,167.75l338.67-.42c9.62,0,21.62-7.4,26.75-16.49l11.19-19.83c4.44-7.87,15.24-14.53,23.56-14.53h419.29l1.38-6.54Z" style="fill: #29aae2;"/>
        </g>
        <path d="M798.56,133.44c-.78-.32-1.58-.56-2.41-.72-.82-.15-1.66-.23-2.5-.24-1.15,0-2.23.23-3.25.68-1.02.46-1.86,1.12-2.5,1.98-.65.87-.98,1.92-1,3.16.04,1.39.4,2.47,1.09,3.23.69.76,1.48,1.4,2.39,1.89.91.5,1.7,1.03,2.39,1.61.69.58,1.05,1.37,1.09,2.37,0,.9-.34,1.72-1.05,2.46-.71.74-1.83,1.13-3.37,1.17-.74,0-1.48-.12-2.24-.36-.76-.23-1.45-.54-2.06-.93l-.94,2.69c.8.33,1.66.61,2.57.82.91.22,1.96.33,3.13.35,1.63-.03,2.97-.36,4.01-1.02,1.04-.65,1.8-1.47,2.3-2.47.49-.99.74-2.01.74-3.07-.04-1.31-.4-2.36-1.09-3.15-.69-.78-1.49-1.44-2.39-1.97-.91-.53-1.71-1.06-2.4-1.62-.69-.54-1.05-1.23-1.08-2.07.04-1.19.47-2.03,1.29-2.5.81-.47,1.73-.7,2.75-.69.76.01,1.46.11,2.07.28.61.18,1.15.42,1.64.71l.82-2.6ZM776.69,153.25h2.96l4.39-20.42h-2.95l-4.39,20.42ZM760.53,153.25h11.53l.55-2.57h-8.57l1.49-6.74h7.67l.5-2.57h-7.58l1.31-5.98h8.08l.58-2.57h-11.09l-4.47,20.42ZM761.99,132.83h-3.22l-10.3,17.5h-.06l-2.57-17.5h-2.93l3.31,20.42h3.51l12.26-20.42ZM731.5,131.53h2.08l3.95-4.21h-3.28l-2.75,4.21ZM717.69,153.25h3.25l3.28-5.15h10.03l1.08,5.15h3.01l-4.51-20.42h-2.89l-13.26,20.42ZM733.81,145.7h-8.1l6.17-9.72,1.93,9.72ZM721.29,132.83h-3.22l-10.3,17.5h-.06l-2.57-17.5h-2.92l3.31,20.42h3.51l12.26-20.42ZM681.56,145.02c.01-1.75.36-3.39,1.05-4.9.69-1.5,1.66-2.72,2.9-3.65,1.24-.93,2.71-1.4,4.39-1.44,1.75.02,3.07.55,3.95,1.59.87,1.05,1.31,2.56,1.32,4.53,0,1.53-.32,3.04-.96,4.54-.64,1.5-1.55,2.76-2.74,3.76-1.2,1.01-2.64,1.53-4.32,1.57-1.85-.02-3.24-.56-4.18-1.64-.95-1.07-1.41-2.52-1.41-4.37ZM678.47,144.94c0,2.83.72,4.99,2.17,6.45,1.44,1.47,3.57,2.2,6.4,2.21,2.47-.04,4.54-.67,6.21-1.89,1.66-1.22,2.92-2.8,3.77-4.75.84-1.94,1.26-4.01,1.26-6.21-.02-2.62-.75-4.65-2.18-6.09-1.45-1.44-3.48-2.16-6.09-2.19-2.51.05-4.61.7-6.32,1.95-1.71,1.25-3,2.82-3.88,4.71-.88,1.89-1.32,3.83-1.32,5.81ZM656.38,153.25h2.81l3.48-16.98h.06l5.76,16.98h3.78l4.44-20.42h-2.78l-3.63,17.12h-.06l-5.76-17.12h-3.87l-4.24,20.42ZM640.09,153.25h11.53l.55-2.57h-8.57l1.49-6.74h7.67l.5-2.57h-7.58l1.31-5.98h8.08l.59-2.57h-11.09l-4.47,20.42ZM628.93,135.4h2.72c1.13-.01,1.99.19,2.57.61.58.42.88,1.15.88,2.21-.03.9-.32,1.61-.88,2.09-.56.5-1.24.84-2.04,1.03-.79.2-1.55.29-2.26.28h-2.31l1.31-6.21ZM622.2,153.25h2.92l1.9-9.08h2.61c.49-.01.9.07,1.22.24s.59.53.83,1.06c.23.54.47,1.34.72,2.42l1.23,5.36h3.1l-1.11-4.3c-.13-.54-.29-1.19-.46-1.95-.18-.74-.42-1.46-.72-2.14-.31-.68-.71-1.19-1.22-1.54,1.39-.23,2.56-.85,3.5-1.86.94-1.01,1.43-2.23,1.47-3.67-.05-1.62-.49-2.79-1.34-3.5-.86-.71-1.87-1.14-3.04-1.29-1.18-.15-2.26-.21-3.25-.18h-4.01l-4.36,20.42ZM613.09,133.44c-.78-.32-1.58-.56-2.41-.72-.82-.15-1.66-.23-2.5-.24-1.15,0-2.23.23-3.25.68-1.02.46-1.86,1.12-2.5,1.98-.65.87-.98,1.92-1,3.16.04,1.39.4,2.47,1.09,3.23.69.76,1.48,1.4,2.39,1.89.9.5,1.7,1.03,2.39,1.61.68.58,1.05,1.37,1.09,2.37,0,.9-.34,1.72-1.05,2.46-.71.74-1.83,1.13-3.37,1.17-.74,0-1.48-.12-2.24-.36-.76-.23-1.45-.54-2.06-.93l-.94,2.69c.8.33,1.66.61,2.57.82.91.22,1.96.33,3.13.35,1.63-.03,2.97-.36,4.01-1.02,1.04-.65,1.8-1.47,2.3-2.47.49-.99.74-2.01.74-3.07-.04-1.31-.4-2.36-1.09-3.15-.69-.78-1.49-1.44-2.39-1.97-.91-.53-1.71-1.06-2.4-1.62-.69-.54-1.05-1.23-1.08-2.07.04-1.19.47-2.03,1.29-2.5.81-.47,1.73-.7,2.75-.69.77.01,1.46.11,2.07.28.61.18,1.15.42,1.64.71l.82-2.6ZM576.16,153.25h3.25l3.28-5.15h10.03l1.08,5.15h3.02l-4.51-20.42h-2.89l-13.26,20.42ZM592.29,145.7h-8.1l6.17-9.72,1.93,9.72ZM570.07,153.25h2.96l4.39-20.42h-2.95l-4.39,20.42ZM568.49,133.64c-.68-.29-1.52-.55-2.51-.79-1-.23-2.25-.36-3.75-.37-2.2.03-4.08.4-5.63,1.14-1.56.74-2.82,1.7-3.8,2.88-.98,1.19-1.7,2.46-2.15,3.82-.46,1.36-.69,2.68-.68,3.95.02,2.15.44,3.92,1.28,5.3.83,1.38,1.96,2.4,3.41,3.06,1.44.66,3.07.98,4.91.98,1.2-.01,2.22-.08,3.06-.2.83-.13,1.58-.26,2.24-.42l2.37-10.91h-7.11l-.59,2.39h4.27l-1.34,6.3c-.33.11-.73.18-1.21.21-.48.04-.89.06-1.22.05-2.04,0-3.7-.54-4.98-1.63-1.29-1.09-1.95-2.76-1.99-4.99,0-1.62.33-3.14,1.01-4.56.68-1.41,1.7-2.56,3.06-3.44,1.36-.88,3.08-1.34,5.15-1.37,1.14.02,2.16.13,3.06.34.89.21,1.65.47,2.27.77l.88-2.51ZM537.87,135.4h2.72c1.13-.01,1.99.19,2.57.61.59.42.88,1.15.88,2.21-.03.9-.32,1.61-.88,2.09-.56.5-1.24.84-2.04,1.03-.79.2-1.55.29-2.26.28h-2.31l1.31-6.21ZM531.14,153.25h2.92l1.9-9.08h2.61c.49-.01.9.07,1.22.24.32.17.6.53.84,1.06.23.54.47,1.34.72,2.42l1.23,5.36h3.1l-1.11-4.3c-.13-.54-.29-1.19-.46-1.95-.18-.74-.41-1.46-.72-2.14-.31-.68-.71-1.19-1.22-1.54,1.39-.23,2.56-.85,3.5-1.86.94-1.01,1.43-2.23,1.47-3.67-.05-1.62-.49-2.79-1.34-3.5-.86-.71-1.87-1.14-3.04-1.29-1.17-.15-2.25-.21-3.25-.18h-4.01l-4.36,20.42ZM514.86,153.25h11.53l.55-2.57h-8.57l1.49-6.74h7.67l.5-2.57h-7.58l1.31-5.98h8.08l.59-2.57h-11.09l-4.47,20.42ZM493.71,153.25h2.81l3.48-16.98h.06l5.76,16.98h3.77l4.45-20.42h-2.78l-3.63,17.12h-.06l-5.76-17.12h-3.87l-4.24,20.42ZM477.41,153.25h11.53l.55-2.57h-8.57l1.49-6.74h7.67l.5-2.57h-7.58l1.31-5.98h8.08l.59-2.57h-11.09l-4.47,20.42Z" style="fill: #fff;"/>
      </g>
    </g>
  </g>
</svg>